<?xml version="1.0" encoding="utf-8"?>
<!-- Generator: Adobe Illustrator 18.0.0, SVG Export Plug-In . SVG Version: 6.00 Build 0)  -->
<!DOCTYPE svg PUBLIC "-//W3C//DTD SVG 1.1//EN" "http://www.w3.org/Graphics/SVG/1.1/DTD/svg11.dtd">
<svg version="1.1" id="Layer_4" xmlns="http://www.w3.org/2000/svg" xmlns:xlink="http://www.w3.org/1999/xlink" x="0px" y="0px"
	 viewBox="0 0 400 400" enable-background="new 0 0 400 400" xml:space="preserve">
<g>
	<g>
		<path fill="#FFFFFF" d="M171.7,344.6H62.1c-3.3,0-6-2.7-6-6V229c0-3.3,2.7-6,6-6h109.6c3.3,0,6,2.7,6,6v109.6
			C177.7,341.9,175,344.6,171.7,344.6z M68.1,332.6h97.6V235H68.1V332.6z"/>
	</g>
</g>
<g>
	<g>
		<path fill="#FFFFFF" d="M283.6,182c-36.3,0-65.8-29.5-65.8-65.8c0-36.3,29.5-65.8,65.8-65.8s65.8,29.5,65.8,65.8
			C349.4,152.5,319.9,182,283.6,182z M283.6,62.5c-29.7,0-53.8,24.1-53.8,53.8S254,170,283.6,170s53.8-24.1,53.8-53.8
			S313.3,62.5,283.6,62.5z"/>
	</g>
</g>
<g>
	<g>
		<path fill="#FFFFFF" d="M240.8,350.4c-1.1,0-2.2-0.3-3.2-1c-1.9-1.4-2.7-3.8-2-6l15.1-46.6l-39.7-28.8c-1.9-1.4-2.7-3.8-2-6
			c0.7-2.2,2.8-3.7,5.1-3.7h49l15.2-46.6c0.7-2.2,2.8-3.7,5.1-3.7l0,0c2.3,0,4.4,1.5,5.1,3.7l15.1,46.6h49c2.3,0,4.4,1.5,5.1,3.7
			c0.7,2.2-0.1,4.7-2,6l-39.7,28.8l15.2,46.6c0.7,2.2-0.1,4.7-2,6c-1.9,1.4-4.5,1.4-6.3,0l-39.7-28.8L244,349.4
			C243,350.1,241.9,350.4,240.8,350.4z M230.9,269l29.4,21.4c1.9,1.4,2.7,3.8,2,6l-11.2,34.6l29.4-21.4c1.9-1.4,4.5-1.4,6.3,0
			l29.4,21.4L305,296.4c-0.7-2.2,0.1-4.7,2-6l29.4-21.4H300c-2.3,0-4.4-1.5-5.1-3.7l-11.2-34.6l-11.2,34.6c-0.7,2.2-2.8,3.7-5.1,3.7
			H230.9z"/>
	</g>
</g>
<g>
	<g>
		<path fill="#FFFFFF" d="M179.6,175.6H54.2c-2.1,0-4.1-1.1-5.2-3s-1.1-4.1,0-6L111.7,58c1.1-1.9,3.1-3,5.2-3c2.1,0,4.1,1.1,5.2,3
			l62.7,108.6c1.1,1.9,1.1,4.1,0,6S181.7,175.6,179.6,175.6z M64.6,163.6h104.6L116.9,73L64.6,163.6z"/>
	</g>
</g>
</svg>
