<?xml version="1.0" encoding="utf-8"?>
<!-- Generator: Adobe Illustrator 17.0.0, SVG Export Plug-In . SVG Version: 6.00 Build 0)  -->
<!DOCTYPE svg PUBLIC "-//W3C//DTD SVG 1.1//EN" "http://www.w3.org/Graphics/SVG/1.1/DTD/svg11.dtd">
<svg version="1.1" id="Layer_4" xmlns="http://www.w3.org/2000/svg" xmlns:xlink="http://www.w3.org/1999/xlink" x="0px" y="0px"
	 width="595.28px" height="841.89px" viewBox="0 0 595.28 841.89" enable-background="new 0 0 595.28 841.89" xml:space="preserve">
<g>
	<g>
		<path fill="#333333" d="M255.524,636.139H92.417c-4.911,0-8.929-4.018-8.929-8.929V464.103c0-4.911,4.018-8.929,8.929-8.929
			h163.107c4.911,0,8.929,4.018,8.929,8.929V627.21C264.453,632.121,260.435,636.139,255.524,636.139z M101.346,618.28h145.248
			V473.032H101.346V618.28z"/>
	</g>
</g>
<g>
	<g>
		<path fill="#333333" d="M422.054,394.157c-54.022,0-97.924-43.902-97.924-97.924s43.902-97.924,97.924-97.924
			s97.924,43.902,97.924,97.924S476.075,394.157,422.054,394.157z M422.054,216.317c-44.2,0-80.065,35.866-80.065,80.065
			s36.014,79.916,80.065,79.916s80.065-35.866,80.065-80.065S466.253,216.317,422.054,216.317z"/>
	</g>
</g>
<g>
	<g>
		<path fill="#333333" d="M358.359,644.77c-1.637,0-3.274-0.446-4.762-1.488c-2.828-2.083-4.018-5.655-2.976-8.929l22.472-69.35
			l-59.082-42.86c-2.828-2.083-4.018-5.655-2.976-8.929c1.042-3.274,4.167-5.506,7.59-5.506h72.922l22.621-69.35
			c1.042-3.274,4.167-5.506,7.59-5.506l0,0c3.423,0,6.548,2.232,7.59,5.506l22.472,69.35h72.922c3.423,0,6.548,2.232,7.59,5.506
			c1.042,3.274-0.149,6.995-2.976,8.929l-59.082,42.86l22.621,69.35c1.042,3.274-0.149,6.995-2.976,8.929
			c-2.828,2.083-6.697,2.083-9.376,0l-59.082-42.86l-58.338,42.86C361.633,644.324,359.996,644.77,358.359,644.77z M343.625,523.631
			l43.753,31.847c2.828,2.083,4.018,5.655,2.976,8.929l-16.668,51.492l43.753-31.847c2.828-2.083,6.697-2.083,9.376,0l43.753,31.847
			l-16.668-51.492c-1.042-3.274,0.149-6.995,2.976-8.929l43.753-31.847h-54.17c-3.423,0-6.548-2.232-7.59-5.506l-16.668-51.492
			l-16.668,51.492c-1.042,3.274-4.167,5.506-7.59,5.506H343.625z"/>
	</g>
</g>
<g>
	<g>
		<path fill="#333333" d="M267.281,384.633H80.66c-3.125,0-6.102-1.637-7.739-4.465s-1.637-6.102,0-8.929l93.31-161.619
			c1.637-2.828,4.613-4.465,7.739-4.465s6.102,1.637,7.739,4.465l93.31,161.619c1.637,2.828,1.637,6.102,0,8.929
			S270.406,384.633,267.281,384.633z M96.138,366.775h155.666l-77.833-134.831L96.138,366.775z"/>
	</g>
</g>
</svg>
