<?xml version="1.0" encoding="utf-8"?>
<!-- Generator: Adobe Illustrator 17.0.0, SVG Export Plug-In . SVG Version: 6.00 Build 0)  -->
<!DOCTYPE svg PUBLIC "-//W3C//DTD SVG 1.1//EN" "http://www.w3.org/Graphics/SVG/1.1/DTD/svg11.dtd">
<svg version="1.1" id="Layer_4" xmlns="http://www.w3.org/2000/svg" xmlns:xlink="http://www.w3.org/1999/xlink" x="0px" y="0px"
	 width="461.008px" height="446.534px" viewBox="0 0 461.008 446.534" enable-background="new 0 0 461.008 446.534"
	 xml:space="preserve">
<g>
	<g>
		<g>
			<path fill="#E14344" d="M183.83,437.828H20.723c-4.911,0-8.929-4.018-8.929-8.929V265.793c0-4.911,4.018-8.929,8.929-8.929
				H183.83c4.911,0,8.929,4.018,8.929,8.929v163.107C192.759,433.81,188.741,437.828,183.83,437.828z M29.652,419.97h145.248
				V274.722H29.652V419.97z"/>
		</g>
	</g>
	<g>
		<g>
			<path fill="#E14344" d="M350.359,195.847c-54.022,0-97.924-43.902-97.924-97.924S296.338,0,350.359,0
				s97.924,43.902,97.924,97.924C448.283,151.945,404.381,195.847,350.359,195.847z M350.359,18.007
				c-44.2,0-80.065,35.866-80.065,80.065s36.014,79.916,80.065,79.916s80.065-35.866,80.065-80.065S394.559,18.007,350.359,18.007z"
				/>
		</g>
	</g>
	<g>
		<g>
			<path fill="#E14344" d="M286.665,446.46c-1.637,0-3.274-0.446-4.762-1.488c-2.828-2.083-4.018-5.655-2.976-8.929l22.472-69.35
				l-59.082-42.86c-2.828-2.083-4.018-5.655-2.976-8.929s4.167-5.506,7.59-5.506h72.922l22.621-69.35
				c1.042-3.274,4.167-5.506,7.59-5.506l0,0c3.423,0,6.548,2.232,7.59,5.506l22.472,69.35h72.922c3.423,0,6.548,2.232,7.59,5.506
				c1.042,3.274-0.149,6.995-2.976,8.929l-59.082,42.86l22.621,69.35c1.042,3.274-0.149,6.995-2.976,8.929
				c-2.828,2.083-6.697,2.083-9.376,0l-59.082-42.86l-58.338,42.86C289.939,446.014,288.302,446.46,286.665,446.46z
				 M271.931,325.321l43.753,31.847c2.828,2.083,4.018,5.655,2.976,8.929l-16.668,51.492l43.753-31.847
				c2.828-2.083,6.697-2.083,9.376,0l43.753,31.847l-16.668-51.492c-1.042-3.274,0.149-6.995,2.976-8.929l43.753-31.847h-54.17
				c-3.423,0-6.548-2.232-7.59-5.506l-16.668-51.492l-16.668,51.492c-1.042,3.274-4.167,5.506-7.59,5.506H271.931z"/>
		</g>
	</g>
	<g>
		<g>
			<path fill="#E14344" d="M195.587,186.323H8.966c-3.125,0-6.102-1.637-7.739-4.465s-1.637-6.102,0-8.929L94.538,11.31
				c1.637-2.828,4.613-4.465,7.739-4.465c3.125,0,6.102,1.637,7.739,4.465l93.31,161.619c1.637,2.828,1.637,6.102,0,8.929
				S198.712,186.323,195.587,186.323z M24.444,168.464h155.666L102.277,33.633L24.444,168.464z"/>
		</g>
	</g>
</g>
</svg>
