<?xml version="1.0" encoding="utf-8"?>
<!-- Generator: Adobe Illustrator 17.0.0, SVG Export Plug-In . SVG Version: 6.00 Build 0)  -->
<!DOCTYPE svg PUBLIC "-//W3C//DTD SVG 1.1//EN" "http://www.w3.org/Graphics/SVG/1.1/DTD/svg11.dtd">
<svg version="1.1" id="Layer_3" xmlns="http://www.w3.org/2000/svg" xmlns:xlink="http://www.w3.org/1999/xlink" x="0px" y="0px"
	 width="27.931px" height="24.6px" viewBox="0 0 27.931 24.6" enable-background="new 0 0 27.931 24.6" xml:space="preserve">
<g>
	<path fill="#E14344" d="M27.6,21l-8.8-8.6c0.3-0.3,0.7-0.5,1.1-0.7c0,0,2.4-0.9,5-1.5c0.4-0.1,0.6-0.6,0.5-1L25.3,9
		c1.3-1,2.6-3.2,2.4-4.5l-0.1-0.7l-3.9,1.7L23,3.8L27,2l-0.6-0.5C25,0.3,22.9-0.1,21,0.4c-2,0.6-2.6,2.8-2.6,2.9c0,0-1.2,3.9-1.6,5
		c-0.2,0.5-0.4,1-0.8,1.3L15.6,10l0,0l0,0l0,0l-1.3-1.1L11,5.6l-0.1-0.1c0,0,0,0,0-0.1l-0.6-1.6c-0.1-0.2,0.2-0.5,0.4-0.6
		S11.2,3,11.4,3c0.2-0.1,0.5-0.1,0.7-0.2c0.1,0,0.3-0.1,0.5-0.1s0.4-0.1,0.6-0.1c0.5-0.1,1.1,0,1.7,0c0.3,0,0.6,0.1,0.9,0.1l0,0
		L16,2.6l0.3-0.2l0.1-0.5c0-0.1,0-0.2,0.1-0.4V1.4V1l-0.1-0.1l-0.1-0.1c-0.1,0-0.2-0.1-0.5-0.1c-0.8-0.2-1.6-0.5-2.5-0.6
		c-0.4,0-0.8-0.1-1.1-0.1c-0.2,0-0.3,0-0.5,0h-0.1c-0.3,0-0.6,0-0.9,0l0,0c-0.2,0-0.3,0-0.5,0.1c-2,0.2-4,1.1-5.9,3
		C4.1,3.2,4,3.3,3.9,3.5C3.8,3.6,3.7,3.7,3.6,3.8c-0.4,0.5-0.2,1,0,1.5c0,0.1,0.1,0.4,0.1,0.5L3.2,6.2C3.1,6.3,2.9,6.4,2.7,6.4H2.5
		l0,0H2.4C2.2,6.4,2,6.5,1.9,6.7L0.3,8.3c-0.4,0.4-0.4,1,0,1.5l1.8,1.8c0.2,0.2,0.5,0.3,0.8,0.3c0.1,0,0.1,0,0.2,0
		c0.2,0,0.4-0.1,0.5-0.3l1.5-1.5c0.1-0.2,0.2-0.4,0.2-0.6V9.2c0-0.1,0.1-0.3,0.3-0.5l0.8-0.8c0.1-0.1,0.3-0.2,0.5-0.3
		c0.1,0,0.1,0,0.2,0c0.2,0,0.5,0,0.6,0c0.2,0,0.4,0,0.6,0h0.1c0.1,0,0.2,0,0.3,0.1h0.1c0.1,0,0.1,0,0.2,0.1l4.4,4.4l-8.5,7.7
		c0,0-0.8,0.7-0.9,1.8c0,0.7,0.3,1.3,0.9,1.9c0.6,0.6,1.2,0.9,1.8,0.9h0.1c1.1,0,1.8-0.8,1.8-0.9l7.3-8l8.6,8.7
		c0.2,0.2,0.4,0.3,0.7,0.3s0.5-0.1,0.7-0.3l1.9-1.9C28,21.9,28,21.3,27.6,21z M26.6,5.4c-0.3,0.9-1,2.1-1.8,2.7l-0.7-1.7L26.6,5.4z
		 M16.6,10.4c0.5-0.5,0.8-1.1,1.1-1.7c0.5-1.2,1.6-5,1.7-5.1c0,0,0.5-1.7,2-2.2c1.3-0.3,2.7-0.2,3.8,0.4l-3.4,1.5L23,5.9l1.5,3.4
		c0,0,0,0-0.1,0c-2.5,0.5-4.6,1.4-4.7,1.4c-0.5,0.2-1,0.5-1.5,0.9l0,0L16.6,10.4L16.6,10.4z M15,11L15,11L15,11L15,11z M9.3,6.8
		C9.2,6.8,9.2,6.8,9.3,6.8C9.1,6.7,9,6.7,8.8,6.7c-0.1,0-0.2,0-0.3,0c-0.3,0-0.6-0.1-0.8-0.1c0,0-0.3,0-0.5,0c0,0-0.1,0-0.2,0
		c-0.1,0-0.2,0-0.3,0.1c-0.1,0-0.2,0-0.2,0.1c-0.1,0-0.1,0.1-0.2,0.1C6.1,7,5.9,7.1,5.8,7.3L5,8.1C4.7,8.4,4.5,8.7,4.4,9.2v0.4
		l-1.5,1.5l0,0L1.1,9.2l1.1-1.1l0.4-0.4L3,7.6c0.4-0.1,0.7-0.2,1-0.5l0.6-0.6l0.1-0.1C5,6,4.8,5.5,4.7,5C4.4,4.8,4.3,4.5,4.3,4.5
		c0.1-0.1,0.2-0.2,0.4-0.4C4.8,4,4.9,3.9,5,3.8C5.7,3,6.5,2.5,7.3,2c0.1-0.1,0.3-0.2,0.4-0.2C7.8,1.7,8,1.7,8.1,1.6
		c0.4-0.2,0.7-0.3,1.1-0.4c0.1,0,0.2,0,0.3,0c1.1-0.3,2.2-0.3,3.2-0.2c0.1,0,0.3,0,0.4,0.1c0.2,0,0.4,0.1,0.5,0.1c0.2,0,0.4,0,0.5,0
		c0.2,0,0.3,0.1,0.5,0.1c0.2,0,0.3,0.1,0.4,0.1c0.2,0,0.3,0.1,0.5,0.1l0,0l0,0c-0.1,0-0.2,0-0.2,0c-0.2,0-0.3,0-0.5,0
		c-0.7-0.1-1.5,0-2.2,0.1c-0.8,0.1-1.6,0.3-2.3,0.6C9.5,2.5,9.1,3.3,9.3,4L10,5.7c0,0.1,0,0.1,0.1,0.2l0,0l0,0l0,0l0,0L9.3,6.8
		L9.3,6.8L9.3,6.8z M10,7.4L10,7.4l0.7-0.7l0,0l0,0l0,0l2.9,2.9l1,1L14,11.2l0,0l0,0L10,7.4z M13.4,12C13.4,12.1,13.4,12.1,13.4,12
		L13.4,12L13.4,12z M7.8,22.9c0,0-0.5,0.5-1.1,0.5c-0.4,0-0.8-0.2-1.2-0.6c-0.4-0.4-0.6-0.8-0.6-1.2c0-0.6,0.5-1.1,0.5-1.1l8.3-7.5
		l1.3,1.7l0,0L7.8,22.9z M25.1,23.4l-9.2-9.2c0,0,0,0,0-0.1l0,0l-0.6-0.7l-0.2-0.2l-0.6-1l0.2-0.2l0,0l0.6-0.6l0,0l0.3-0.3l0.8,0.6
		l0.4,0.3l0.7,0.5l0,0l9.4,9.1L25.1,23.4z"/>
	<polygon fill="#E14344" points="10.7,6.7 10.7,6.7 10.7,6.7 	"/>
	<path fill="#E14344" d="M15,11L15,11L15,11z"/>
	<path fill="#E14344" d="M15.5,10.1L15.5,10.1L15.5,10.1l-1.2-1.2L15.5,10.1L15.5,10.1L15.5,10.1z"/>
	<path fill="#E14344" d="M10.1,6L10.1,6L10.1,6L10.1,6L10.1,6z"/>
	<path fill="#E14344" d="M13.4,12C13.4,12.1,13.4,12.1,13.4,12L13.4,12L13.4,12z"/>
	<path fill="#E14344" d="M15.5,1.6L15.5,1.6L15.5,1.6L15.5,1.6c-0.2,0-0.3-0.1-0.5-0.1C15.2,1.5,15.4,1.5,15.5,1.6z"/>
</g>
</svg>
