<?xml version="1.0" encoding="utf-8"?>
<!-- Generator: Adobe Illustrator 18.0.0, SVG Export Plug-In . SVG Version: 6.00 Build 0)  -->
<!DOCTYPE svg PUBLIC "-//W3C//DTD SVG 1.1//EN" "http://www.w3.org/Graphics/SVG/1.1/DTD/svg11.dtd">
<svg version="1.1" id="Layer_3" xmlns="http://www.w3.org/2000/svg" xmlns:xlink="http://www.w3.org/1999/xlink" x="0px" y="0px"
	 width="32px" height="32px" viewBox="0 0 32 32" enable-background="new 0 0 32 32" xml:space="preserve">
<g>
	<path fill="#FFFFFF" d="M29.3,24.8l-8.8-8.6c0.3-0.3,0.7-0.5,1.1-0.7c0,0,2.4-0.9,5-1.5c0.4-0.1,0.6-0.6,0.5-1L27,12.8
		c1.3-1,2.6-3.2,2.4-4.5l-0.1-0.7l-3.9,1.7l-0.7-1.7l4-1.8l-0.6-0.5c-1.4-1.2-3.5-1.6-5.4-1.1c-2,0.6-2.6,2.8-2.6,2.9
		c0,0-1.2,3.9-1.6,5c-0.2,0.5-0.4,1-0.8,1.3l-0.4,0.4l0,0l0,0l0,0L16,12.7l-3.3-3.3c0,0-0.1-0.1-0.1-0.1c0,0,0,0,0-0.1L12,7.6
		c-0.1-0.2,0.2-0.5,0.4-0.6c0.2-0.1,0.5-0.2,0.7-0.2c0.2-0.1,0.5-0.1,0.7-0.2c0.1,0,0.3-0.1,0.5-0.1c0.2,0,0.4-0.1,0.6-0.1
		c0.5-0.1,1.1,0,1.7,0c0.3,0,0.6,0.1,0.9,0.1h0l0.2-0.1L18,6.2l0.1-0.5c0-0.1,0-0.2,0.1-0.4l0-0.1l0-0.4l-0.1-0.1l-0.1-0.1
		c-0.1,0-0.2-0.1-0.5-0.1c-0.8-0.2-1.6-0.5-2.5-0.6c-0.4,0-0.8-0.1-1.1-0.1c-0.2,0-0.3,0-0.5,0c0,0-0.1,0-0.1,0c-0.3,0-0.6,0-0.9,0
		h0c-0.2,0-0.3,0-0.5,0.1C9.9,4.1,7.9,5,6,6.9C5.8,7,5.7,7.1,5.6,7.3C5.5,7.4,5.4,7.5,5.3,7.6c-0.4,0.5-0.2,1,0,1.5
		c0,0.1,0.1,0.4,0.1,0.5L4.9,10c-0.1,0.1-0.3,0.2-0.5,0.2l-0.2,0h0c0,0-0.1,0-0.1,0c-0.2,0-0.4,0.1-0.5,0.3L2,12.1
		c-0.4,0.4-0.4,1,0,1.5l1.8,1.8c0.2,0.2,0.5,0.3,0.8,0.3c0.1,0,0.1,0,0.2,0c0.2,0,0.4-0.1,0.5-0.3l1.5-1.5C6.9,13.7,7,13.5,7,13.3
		L7,13c0-0.1,0.1-0.3,0.3-0.5l0.8-0.8c0.1-0.1,0.3-0.2,0.5-0.3c0.1,0,0.1,0,0.2,0c0.2,0,0.5,0,0.6,0c0.2,0,0.4,0,0.6,0
		c0,0,0.1,0,0.1,0c0.1,0,0.2,0,0.3,0.1c0,0,0.1,0,0.1,0c0.1,0,0.1,0,0.2,0.1l4.4,4.4l-8.5,7.7c0,0-0.8,0.7-0.9,1.8
		c0,0.7,0.3,1.3,0.9,1.9c0.6,0.6,1.2,0.9,1.8,0.9h0.1c1.1,0,1.8-0.8,1.8-0.9l7.3-8l8.6,8.7c0.2,0.2,0.4,0.3,0.7,0.3s0.5-0.1,0.7-0.3
		l1.9-1.9C29.7,25.7,29.7,25.1,29.3,24.8z M28.3,9.2c-0.3,0.9-1,2.1-1.8,2.7l-0.7-1.7L28.3,9.2z M18.3,14.2c0.5-0.5,0.8-1.1,1.1-1.7
		c0.5-1.2,1.6-5,1.7-5.1c0,0,0.5-1.7,2-2.2c1.3-0.3,2.7-0.2,3.8,0.4l-3.4,1.5l1.2,2.6l1.5,3.4c0,0,0,0-0.1,0
		c-2.5,0.5-4.6,1.4-4.7,1.4c-0.5,0.2-1,0.5-1.5,0.9c0,0,0,0,0,0L18.3,14.2L18.3,14.2z M16.7,14.8L16.7,14.8L16.7,14.8L16.7,14.8z
		 M11,10.6C10.9,10.6,10.9,10.6,11,10.6c-0.2-0.1-0.3-0.1-0.5-0.1c-0.1,0-0.2,0-0.3,0c-0.3,0-0.6-0.1-0.8-0.1c0,0-0.3,0-0.5,0
		c0,0-0.1,0-0.2,0c-0.1,0-0.2,0-0.3,0.1c-0.1,0-0.2,0-0.2,0.1c-0.1,0-0.1,0.1-0.2,0.1c-0.2,0.1-0.4,0.2-0.5,0.4l-0.8,0.8
		c-0.3,0.3-0.5,0.6-0.6,1.1l0,0.4l-1.5,1.5l0,0l-1.8-1.9l1.1-1.1l0.4-0.4l0.4-0.1c0.4-0.1,0.7-0.2,1-0.5l0.6-0.6l0.1-0.1
		c0.3-0.4,0.1-0.9,0-1.4C6.1,8.6,6,8.3,6,8.3c0.1-0.1,0.2-0.2,0.4-0.4c0.1-0.1,0.2-0.2,0.3-0.3C7.4,6.8,8.2,6.3,9,5.8
		c0.1-0.1,0.3-0.2,0.4-0.2c0.1-0.1,0.3-0.1,0.4-0.2c0.4-0.2,0.7-0.3,1.1-0.4C11,5,11.1,5,11.2,5c1.1-0.3,2.2-0.3,3.2-0.2
		c0.1,0,0.3,0,0.4,0.1c0.2,0,0.4,0.1,0.5,0.1C15.5,5,15.7,5,15.8,5c0.2,0,0.3,0.1,0.5,0.1c0.2,0,0.3,0.1,0.4,0.1
		c0.2,0,0.3,0.1,0.5,0.1c0,0,0,0,0,0h0c-0.1,0-0.2,0-0.2,0c-0.2,0-0.3,0-0.5,0c-0.7-0.1-1.5,0-2.2,0.1C13.5,5.5,12.7,5.7,12,6
		c-0.8,0.3-1.2,1.1-1,1.8l0.7,1.7c0,0.1,0,0.1,0.1,0.2l0,0c0,0,0,0,0,0l0,0c0,0,0,0,0,0L11,10.6C11,10.6,11,10.6,11,10.6L11,10.6z
		 M11.7,11.2L11.7,11.2l0.7-0.7l0,0l0,0l0,0l2.9,2.9l1,1l-0.6,0.6l0,0l0,0L11.7,11.2z M15.1,15.8C15.1,15.9,15.1,15.9,15.1,15.8
		L15.1,15.8L15.1,15.8z M9.5,26.7c0,0-0.5,0.5-1.1,0.5c-0.4,0-0.8-0.2-1.2-0.6c-0.4-0.4-0.6-0.8-0.6-1.2c0-0.6,0.5-1.1,0.5-1.1
		l8.3-7.5l1.3,1.7c0,0,0,0,0,0L9.5,26.7z M26.8,27.2L17.6,18c0,0,0,0,0-0.1c0,0,0,0,0,0L17,17.2l-0.2-0.2L16.2,16l0.2-0.2l0,0
		l0.6-0.6l0,0l0.3-0.3l0.8,0.6l0.4,0.3l0.7,0.5l0,0l9.4,9.1L26.8,27.2z"/>
	<polygon fill="#FFFFFF" points="12.4,10.5 12.4,10.5 12.4,10.5 12.4,10.5 	"/>
	<polygon fill="#FFFFFF" points="16.7,14.8 16.7,14.8 16.7,14.8 	"/>
	<path fill="#FFFFFF" d="M17.2,13.9L17.2,13.9L17.2,13.9L16,12.7L17.2,13.9C17.2,13.9,17.2,13.9,17.2,13.9L17.2,13.9z"/>
	<path fill="#FFFFFF" d="M11.8,9.8L11.8,9.8C11.8,9.8,11.8,9.8,11.8,9.8L11.8,9.8C11.8,9.8,11.8,9.8,11.8,9.8z"/>
	<path fill="#FFFFFF" d="M15.1,15.8C15.1,15.9,15.1,15.9,15.1,15.8L15.1,15.8L15.1,15.8z"/>
	<path fill="#FFFFFF" d="M17.2,5.4C17.2,5.4,17.2,5.4,17.2,5.4L17.2,5.4C17.2,5.4,17.2,5.4,17.2,5.4c-0.2,0-0.3-0.1-0.5-0.1
		C16.9,5.3,17.1,5.3,17.2,5.4z"/>
</g>
</svg>
