<?xml version="1.0" encoding="utf-8"?>
<!-- Generator: Adobe Illustrator 17.0.0, SVG Export Plug-In . SVG Version: 6.00 Build 0)  -->
<!DOCTYPE svg PUBLIC "-//W3C//DTD SVG 1.1//EN" "http://www.w3.org/Graphics/SVG/1.1/DTD/svg11.dtd">
<svg version="1.1" id="图层_1" xmlns="http://www.w3.org/2000/svg" xmlns:xlink="http://www.w3.org/1999/xlink" x="0px" y="0px"
	 width="27px" height="24.8px" viewBox="0 0 27 24.8" enable-background="new 0 0 27 24.8" xml:space="preserve">
<path fill="#E14344" d="M26.5,4.2H21c-0.1,0-0.3,0.1-0.4,0.2c-0.1,0-0.1,0.2-0.1,0.3c0,0.3,0.2,0.5,0.4,0.9c0.4,0.3,0.6,0.8,0.6,1.3
	c-0.1,0.7-0.7,1.3-1.4,1.4h-0.5c-0.7-0.1-1.3-0.7-1.4-1.4c-0.1-0.5,0.1-1,0.5-1.3c0.2-0.2,0.4-0.5,0.4-0.9c0-0.3-0.2-0.5-0.5-0.5H9
	C9.4,3.7,9.7,3,9.6,2.3C9.5,1.1,8.5,0.1,7.3,0H6.7C5.5,0.1,4.5,1.1,4.4,2.2C4.3,2.9,4.5,3.6,5,4.2H0.5C0.2,4.2,0,4.4,0,4.6v6.6
	c0,0.1,0.1,0.3,0.2,0.4c0.1,0.1,0.3,0.1,0.4,0.1c0.3-0.1,0.5-0.2,0.9-0.4c0.3-0.3,0.7-0.5,1.1-0.5h0.2c0.7,0.1,1.3,0.7,1.4,1.4v0.5
	c-0.1,0.7-0.7,1.3-1.4,1.4c-0.5,0.1-1-0.1-1.3-0.5C1.3,13.3,1,13.1,0.6,13c-0.1,0-0.3,0-0.4,0.1C0.1,13.2,0,13.3,0,13.5v6.6
	c0,0.3,0.2,0.5,0.5,0.5H5c-0.4,0.5-0.7,1.2-0.6,1.9c0.1,1.2,1.1,2.2,2.3,2.3h0.5c1.2-0.1,2.2-1.1,2.3-2.3c0.1-0.7-0.1-1.4-0.6-1.9
	h4.2l0.3,0.1h5.4c0.3,0,0.5-0.2,0.5-0.5c0-0.1,0-0.2-0.1-0.2c-0.1-0.2-0.2-0.4-0.4-0.7c-0.4-0.3-0.5-0.8-0.5-1.3
	c0.1-0.7,0.7-1.3,1.4-1.4h0.5c0.7,0.1,1.3,0.7,1.4,1.4c0.1,0.5-0.1,1-0.5,1.3c-0.2,0.2-0.4,0.5-0.4,0.9c0,0.3,0.2,0.5,0.5,0.5h5.3
	c0.3,0,0.5-0.2,0.5-0.5V4.6C27,4.4,26.8,4.2,26.5,4.2z M13,19.7H8.2c-0.3,0-0.5,0.2-0.5,0.5c0,0.4,0.2,0.7,0.5,1
	c0.4,0.3,0.5,0.8,0.5,1.3c-0.1,0.7-0.7,1.3-1.4,1.4H6.9c-0.8-0.1-1.4-0.7-1.5-1.5c-0.1-0.5,0.1-1,0.5-1.4c0.2-0.3,0.3-0.5,0.4-0.8
	c0-0.1,0-0.3-0.1-0.4S6,19.6,5.8,19.6H1v-5.2C1.4,14.8,2,15,2.6,15h0.3c1.2-0.1,2.2-1.1,2.3-2.3v-0.6c-0.1-1.2-1.1-2.2-2.3-2.3
	C2.2,9.8,1.5,10,1,10.4V5.1h4.8c0.3,0,0.5-0.2,0.5-0.5c0-0.4-0.2-0.7-0.5-1C5.5,3.4,5.3,2.9,5.4,2.3C5.5,1.6,6.1,1,6.8,0.9h0.5
	C7.9,1,8.5,1.6,8.6,2.4c0.1,0.5-0.1,1-0.5,1.4C7.9,4.1,7.8,4.3,7.7,4.6c0,0.1,0,0.3,0.1,0.4C7.9,5.1,8,5.2,8.2,5.2h4.9v5.2
	c-0.5-0.4-1.2-0.7-1.9-0.6C10.1,10,9.1,10.9,9,12.1v0.7c0.1,1.2,1.1,2.2,2.3,2.3c0.7,0.1,1.4-0.1,1.9-0.6v5.2H13z M26.1,19.8h-4
	c0.4-0.5,0.7-1.2,0.6-1.9c-0.1-1.2-1.1-2.2-2.3-2.3h-0.6c-1.2,0.1-2.2,1.1-2.3,2.3c-0.1,0.7,0.1,1.4,0.6,1.9h-4v-6.3
	c0-0.1-0.1-0.3-0.2-0.4S13.6,13,13.5,13c-0.3,0.1-0.5,0.2-0.9,0.4c-0.3,0.3-0.7,0.5-1.1,0.5h-0.2c-0.7-0.1-1.3-0.7-1.4-1.4v-0.4
	c0.1-0.7,0.7-1.3,1.4-1.4c0.5-0.1,1,0.1,1.4,0.5c0.1,0.1,0.2,0.1,0.2,0.1l0.1,0.1l0.4,0.2c0.1,0,0.3,0,0.4-0.1s0.2-0.2,0.2-0.4v-6
	h3.9c-0.4,0.5-0.7,1.2-0.6,1.9c0.1,1.2,1.1,2.2,2.3,2.3h0.6c1.2-0.1,2.2-1.1,2.3-2.3c0.1-0.7-0.1-1.4-0.6-1.9h4.2
	C26.1,5.1,26.1,19.8,26.1,19.8z"/>
</svg>
