<svg xmlns="http://www.w3.org/2000/svg" width="32" height="32" viewBox="0 0 32 32"><path fill="#fff" d="M29 7.8h-5.5c-.1 0-.3.1-.4.2-.1 0-.1.2-.1.3 0 .3.2.5.4.9.4.3.6.8.6 1.3-.1.7-.7 1.3-1.4 1.4h-.5c-.7-.1-1.3-.7-1.4-1.4-.1-.5.1-1 .5-1.3.2-.2.4-.5.4-.9 0-.3-.2-.5-.5-.5h-9.6c.4-.5.7-1.2.6-1.9-.1-1.2-1.1-2.2-2.3-2.3h-.6c-1.2.1-2.2 1.1-2.3 2.2-.1.7.1 1.4.6 2h-4.5c-.3 0-.5.2-.5.4v6.6c0 .1.1.3.2.4.1.1.3.1.4.1.3-.1.5-.2.9-.4.3-.3.7-.5 1.1-.5h.2c.7.1 1.3.7 1.4 1.4v.5c-.1.7-.7 1.3-1.4 1.4-.5.1-1-.1-1.3-.5-.2-.3-.5-.5-.9-.6-.1 0-.3 0-.4.1-.1.1-.2.2-.2.4v6.6c0 .3.2.5.5.5h4.5c-.4.5-.7 1.2-.6 1.9.1 1.2 1.1 2.2 2.3 2.3h.5c1.2-.1 2.2-1.1 2.3-2.3.1-.7-.1-1.4-.6-1.9h4.2l.3.1h5.4c.3 0 .5-.2.5-.5 0-.1 0-.2-.1-.2-.1-.2-.2-.4-.4-.7-.4-.3-.5-.8-.5-1.3.1-.7.7-1.3 1.4-1.4h.5c.7.1 1.3.7 1.4 1.4.1.5-.1 1-.5 1.3-.2.2-.4.5-.4.9 0 .3.2.5.5.5h5.3c.3 0 .5-.2.5-.5v-15.6c0-.2-.2-.4-.5-.4zm-13.5 15.5h-4.8c-.3 0-.5.2-.5.5 0 .4.2.7.5 1 .4.3.5.8.5 1.3-.1.7-.7 1.3-1.4 1.4h-.4c-.8-.1-1.4-.7-1.5-1.5-.1-.5.1-1 .5-1.4.2-.3.3-.5.4-.8 0-.1 0-.3-.1-.4-.1-.1-.2-.2-.4-.2h-4.8v-5.2c.4.4 1 .6 1.6.6h.3c1.2-.1 2.2-1.1 2.3-2.3v-.6c-.1-1.2-1.1-2.2-2.3-2.3-.7 0-1.4.2-1.9.6v-5.3h4.8c.3 0 .5-.2.5-.5 0-.4-.2-.7-.5-1-.3-.2-.5-.7-.4-1.3.1-.7.7-1.3 1.4-1.4h.5c.6.1 1.2.7 1.3 1.5.1.5-.1 1-.5 1.4-.2.3-.3.5-.4.8 0 .1 0 .3.1.4.1.1.2.2.4.2h4.9v5.2c-.5-.4-1.2-.7-1.9-.6-1.1.2-2.1 1.1-2.2 2.3v.7c.1 1.2 1.1 2.2 2.3 2.3.7.1 1.4-.1 1.9-.6v5.2zm13.1.1h-4c.4-.5.7-1.2.6-1.9-.1-1.2-1.1-2.2-2.3-2.3h-.6c-1.2.1-2.2 1.1-2.3 2.3-.1.7.1 1.4.6 1.9h-4v-6.3c0-.1-.1-.3-.2-.4-.1-.1-.3-.1-.4-.1-.3.1-.5.2-.9.4-.3.3-.7.5-1.1.5h-.2c-.7-.1-1.3-.7-1.4-1.4v-.4c.1-.7.7-1.3 1.4-1.4.5-.1 1 .1 1.4.5.1.1.2.1.2.1l.1.1.4.2c.1 0 .3 0 .4-.1.1-.1.2-.2.2-.4v-6h3.9c-.4.5-.7 1.2-.6 1.9.1 1.2 1.1 2.2 2.3 2.3h.6c1.2-.1 2.2-1.1 2.3-2.3.1-.7-.1-1.4-.6-1.9h4.2v14.7z"/></svg>