<?xml version="1.0" encoding="utf-8"?>
<!-- Generator: Adobe Illustrator 17.0.0, SVG Export Plug-In . SVG Version: 6.00 Build 0)  -->
<!DOCTYPE svg PUBLIC "-//W3C//DTD SVG 1.1//EN" "http://www.w3.org/Graphics/SVG/1.1/DTD/svg11.dtd">
<svg version="1.1" id="图层_1" xmlns="http://www.w3.org/2000/svg" xmlns:xlink="http://www.w3.org/1999/xlink" x="0px" y="0px"
	 width="23.3px" height="22.6px" viewBox="0 0 23.3 22.6" enable-background="new 0 0 23.3 22.6" xml:space="preserve">
<g>
	<path fill="#E14344" d="M3,2.2h2v2H3L3,2.2z"/>
	<circle fill="#E14344" cx="16.6" cy="3.2" r="0.5"/>
	<circle fill="#E14344" cx="18.4" cy="3.2" r="0.5"/>
	<circle fill="#E14344" cx="20.2" cy="3.2" r="0.5"/>
	<path fill="#E14344" d="M21.2,0H1.8C0.8,0,0,0.7,0,1.7v3.2c0,0.9,0.8,1.7,1.8,1.7h19.4c1,0,1.8-0.7,1.8-1.7V1.6
		C23,0.7,22.2,0,21.2,0z M22,4.8c0,0.4-0.4,0.7-0.8,0.7H1.8C1.4,5.5,1,5.2,1,4.8V1.6c0-0.4,0.4-0.7,0.8-0.7h19.4
		c0.4,0,0.8,0.3,0.8,0.7V4.8z M2.7,10.3h2v2h-2L2.7,10.3z"/>
	<circle fill="#E14344" cx="16.6" cy="11.2" r="0.5"/>
	<circle fill="#E14344" cx="18.4" cy="11.2" r="0.5"/>
	<circle fill="#E14344" cx="20.2" cy="11.2" r="0.5"/>
	<path fill="#E14344" d="M21.5,8H2.1c-1,0-1.8,0.7-1.8,1.7v3.2c0,0.9,0.8,1.7,1.8,1.7h19.4c1,0,1.8-0.7,1.8-1.7V9.7
		C23.3,8.7,22.5,8,21.5,8z M22.3,12.9c0,0.4-0.4,0.7-0.8,0.7H2.1c-0.4,0-0.8-0.3-0.8-0.7V9.7C1.3,9.3,1.7,9,2.1,9h19.4
		c0.4,0,0.8,0.3,0.8,0.7V12.9z M3,18.3h2v2H3L3,18.3z"/>
	<circle fill="#E14344" cx="16.6" cy="19.3" r="0.5"/>
	<circle fill="#E14344" cx="18.4" cy="19.3" r="0.5"/>
	<circle fill="#E14344" cx="20.2" cy="19.3" r="0.5"/>
	<path fill="#E14344" d="M21.5,16H2.1c-1,0-1.8,0.7-1.8,1.7v3.2c0,0.9,0.8,1.7,1.8,1.7h19.4c1,0,1.8-0.7,1.8-1.7v-3.2
		C23.3,16.8,22.5,16,21.5,16z M22.3,20.9c0,0.4-0.4,0.7-0.8,0.7H2.1c-0.4,0-0.8-0.3-0.8-0.7v-3.2c0-0.4,0.4-0.7,0.8-0.7h19.4
		c0.4,0,0.8,0.3,0.8,0.7V20.9z"/>
</g>
</svg>
