<?xml version="1.0" encoding="utf-8"?>
<!-- Generator: Adobe Illustrator 17.0.0, SVG Export Plug-In . SVG Version: 6.00 Build 0)  -->
<!DOCTYPE svg PUBLIC "-//W3C//DTD SVG 1.1//EN" "http://www.w3.org/Graphics/SVG/1.1/DTD/svg11.dtd">
<svg version="1.1" id="图层_1" xmlns="http://www.w3.org/2000/svg" xmlns:xlink="http://www.w3.org/1999/xlink" x="0px" y="0px"
	 width="32px" height="32px" viewBox="0 0 32 32" enable-background="new 0 0 32 32" xml:space="preserve">
<path fill="#333333" d="M29,7.8h-5.5c-0.1,0-0.3,0.1-0.4,0.2C23,8,23,8.2,23,8.3c0,0.3,0.2,0.5,0.4,0.9C23.8,9.5,24,10,24,10.5
	c-0.1,0.7-0.7,1.3-1.4,1.4h-0.5c-0.7-0.1-1.3-0.7-1.4-1.4c-0.1-0.5,0.1-1,0.5-1.3c0.2-0.2,0.4-0.5,0.4-0.9c0-0.3-0.2-0.5-0.5-0.5
	h-9.6c0.4-0.5,0.7-1.2,0.6-1.9C12,4.7,11,3.7,9.8,3.6H9.2C8,3.7,7,4.7,6.9,5.8C6.8,6.5,7,7.2,7.5,7.8H3C2.7,7.8,2.5,8,2.5,8.2v6.6
	c0,0.1,0.1,0.3,0.2,0.4c0.1,0.1,0.3,0.1,0.4,0.1c0.3-0.1,0.5-0.2,0.9-0.4c0.3-0.3,0.7-0.5,1.1-0.5h0.2c0.7,0.1,1.3,0.7,1.4,1.4v0.5
	C6.6,17,6,17.6,5.3,17.7c-0.5,0.1-1-0.1-1.3-0.5c-0.2-0.3-0.5-0.5-0.9-0.6c-0.1,0-0.3,0-0.4,0.1c-0.1,0.1-0.2,0.2-0.2,0.4v6.6
	c0,0.3,0.2,0.5,0.5,0.5h4.5c-0.4,0.5-0.7,1.2-0.6,1.9C7,27.3,8,28.3,9.2,28.4h0.5c1.2-0.1,2.2-1.1,2.3-2.3c0.1-0.7-0.1-1.4-0.6-1.9
	h4.2l0.3,0.1h5.4c0.3,0,0.5-0.2,0.5-0.5c0-0.1,0-0.2-0.1-0.2c-0.1-0.2-0.2-0.4-0.4-0.7c-0.4-0.3-0.5-0.8-0.5-1.3
	c0.1-0.7,0.7-1.3,1.4-1.4h0.5c0.7,0.1,1.3,0.7,1.4,1.4c0.1,0.5-0.1,1-0.5,1.3c-0.2,0.2-0.4,0.5-0.4,0.9c0,0.3,0.2,0.5,0.5,0.5H29
	c0.3,0,0.5-0.2,0.5-0.5V8.2C29.5,8,29.3,7.8,29,7.8z M15.5,23.3h-4.8c-0.3,0-0.5,0.2-0.5,0.5c0,0.4,0.2,0.7,0.5,1
	c0.4,0.3,0.5,0.8,0.5,1.3c-0.1,0.7-0.7,1.3-1.4,1.4H9.4C8.6,27.4,8,26.8,7.9,26c-0.1-0.5,0.1-1,0.5-1.4c0.2-0.3,0.3-0.5,0.4-0.8
	c0-0.1,0-0.3-0.1-0.4s-0.2-0.2-0.4-0.2H3.5V18c0.4,0.4,1,0.6,1.6,0.6h0.3c1.2-0.1,2.2-1.1,2.3-2.3v-0.6c-0.1-1.2-1.1-2.2-2.3-2.3
	c-0.7,0-1.4,0.2-1.9,0.6V8.7h4.8c0.3,0,0.5-0.2,0.5-0.5c0-0.4-0.2-0.7-0.5-1C8,7,7.8,6.5,7.9,5.9C8,5.2,8.6,4.6,9.3,4.5h0.5
	C10.4,4.6,11,5.2,11.1,6c0.1,0.5-0.1,1-0.5,1.4c-0.2,0.3-0.3,0.5-0.4,0.8c0,0.1,0,0.3,0.1,0.4c0.1,0.1,0.2,0.2,0.4,0.2h4.9V14
	c-0.5-0.4-1.2-0.7-1.9-0.6c-1.1,0.2-2.1,1.1-2.2,2.3v0.7c0.1,1.2,1.1,2.2,2.3,2.3c0.7,0.1,1.4-0.1,1.9-0.6v5.2H15.5z M28.6,23.4h-4
	c0.4-0.5,0.7-1.2,0.6-1.9c-0.1-1.2-1.1-2.2-2.3-2.3h-0.6c-1.2,0.1-2.2,1.1-2.3,2.3c-0.1,0.7,0.1,1.4,0.6,1.9h-4v-6.3
	c0-0.1-0.1-0.3-0.2-0.4s-0.3-0.1-0.4-0.1c-0.3,0.1-0.5,0.2-0.9,0.4c-0.3,0.3-0.7,0.5-1.1,0.5h-0.2c-0.7-0.1-1.3-0.7-1.4-1.4v-0.4
	c0.1-0.7,0.7-1.3,1.4-1.4c0.5-0.1,1,0.1,1.4,0.5c0.1,0.1,0.2,0.1,0.2,0.1l0.1,0.1l0.4,0.2c0.1,0,0.3,0,0.4-0.1s0.2-0.2,0.2-0.4v-6
	h3.9c-0.4,0.5-0.7,1.2-0.6,1.9c0.1,1.2,1.1,2.2,2.3,2.3h0.6c1.2-0.1,2.2-1.1,2.3-2.3c0.1-0.7-0.1-1.4-0.6-1.9h4.2
	C28.6,8.7,28.6,23.4,28.6,23.4z"/>
</svg>
