<svg xmlns="http://www.w3.org/2000/svg" width="32" height="32" viewBox="0 0 32 32"><g fill="#fff"><path d="M7.4 6.8h2v2h-2z"/><circle cx="21" cy="7.8" r=".5"/><circle cx="22.8" cy="7.8" r=".5"/><circle cx="24.6" cy="7.8" r=".5"/><path d="M25.9 4.6h-19.4c-1 0-1.8.7-1.8 1.7v3.2c0 .9.8 1.7 1.8 1.7h19.4c1 0 1.8-.7 1.8-1.7v-3.3c0-.9-.8-1.6-1.8-1.6zm.8 4.8c0 .4-.4.7-.8.7h-19.4c-.4 0-.8-.3-.8-.7v-3.2c0-.4.4-.7.8-.7h19.4c.4 0 .8.3.8.7v3.2zM7.4 14.9h2v2h-2z"/><circle cx="21" cy="15.8" r=".5"/><circle cx="22.8" cy="15.8" r=".5"/><circle cx="24.6" cy="15.8" r=".5"/><path d="M25.9 12.6h-19.4c-1 0-1.8.7-1.8 1.7v3.2c0 .9.8 1.7 1.8 1.7h19.4c1 0 1.8-.7 1.8-1.7v-3.2c0-1-.8-1.7-1.8-1.7zm.8 4.9c0 .4-.4.7-.8.7h-19.4c-.4 0-.8-.3-.8-.7v-3.2c0-.4.4-.7.8-.7h19.4c.4 0 .8.3.8.7v3.2zM7.4 22.9h2v2h-2z"/><circle cx="21" cy="23.9" r=".5"/><circle cx="22.8" cy="23.9" r=".5"/><circle cx="24.6" cy="23.9" r=".5"/><path d="M25.9 20.6h-19.4c-1 0-1.8.7-1.8 1.7v3.2c0 .9.8 1.7 1.8 1.7h19.4c1 0 1.8-.7 1.8-1.7v-3.2c0-.9-.8-1.7-1.8-1.7zm.8 4.9c0 .4-.4.7-.8.7h-19.4c-.4 0-.8-.3-.8-.7v-3.2c0-.4.4-.7.8-.7h19.4c.4 0 .8.3.8.7v3.2z"/></g></svg>