<svg xmlns="http://www.w3.org/2000/svg" width="32" height="32" viewBox="0 0 32 32"><path fill="#fff" d="M29.4 11.8c-.1-.2-.2-.3-.2-.5 0-.1 0-.2-.1-.2l-2.4-6.5h-21.5l-2.3 6.4c-.1.3-.2.7-.2 1 0 1.4 1 2.7 2.4 3v12.5h21.8v-12.4c1.5-.2 2.7-1.5 2.7-3v-.2l-.2-.1zm-23.3 14.7v-2.9h6.5v2.9h-6.5zm7.5 0v-8.2h4.8v8.2h-4.8zm12.3 0h-6.5v-2.9h6.5v2.9zm-6.5-3.8v-5.4h-6.8v5.4h-6.5v-7.6c.9-.1 1.8-.6 2.3-1.4.5.8 1.5 1.4 2.6 1.4s2-.5 2.6-1.4c.5.8 1.5 1.4 2.6 1.4s2-.5 2.6-1.4c.5.8 1.5 1.4 2.6 1.4s2-.5 2.6-1.4c.4.7 1.2 1.1 2 1.3v7.6h-6.6zm7-8.6c-1.1 0-2-.8-2.1-2h-1c-.1 1.1-1 2-2.1 2s-2-.8-2.1-2h-1c-.1 1.1-1 2-2.1 2s-2-.8-2.1-2h-1c-.1 1.1-1 2-2.1 2s-2-.8-2.1-2h-1c-.1 1.1-1 2-2.1 2s-2.1-.9-2.1-2.1c0-.3 0-.5.1-.7l2.4-5.8h20.1l2.1 5.8.1.2c.1.2.1.4.3.7-.2 1.1-1.1 1.9-2.2 1.9z"/></svg>