<?xml version="1.0" encoding="utf-8"?>
<!-- Generator: Adobe Illustrator 17.0.0, SVG Export Plug-In . SVG Version: 6.00 Build 0)  -->
<!DOCTYPE svg PUBLIC "-//W3C//DTD SVG 1.1//EN" "http://www.w3.org/Graphics/SVG/1.1/DTD/svg11.dtd">
<svg version="1.1" id="图层_1" xmlns="http://www.w3.org/2000/svg" xmlns:xlink="http://www.w3.org/1999/xlink" x="0px" y="0px"
	 width="32px" height="32px" viewBox="0 0 32 32" enable-background="new 0 0 32 32" xml:space="preserve">
<g>
	<path fill="#C8C8C8" stroke="#C8C8C8" stroke-width="2" stroke-miterlimit="10" d="M28.8,16c0-7.1-5.7-12.8-12.8-12.8
		C8.9,3.1,3.2,8.9,3.2,16c0,3.2,1.2,6.1,3.1,8.3l0.3,0.3c2.4,2.7,5.8,4.2,9.5,4.2c2.3,0,4.5-0.6,6.3-1.7c0,0,0.1,0,0.1-0.1l1-0.6
		l0.2-0.2l0.8-0.6l0.3-0.3l0.6-0.6l0.2-0.2l0.3-0.3C27.7,22,28.8,19.1,28.8,16z M16,4.1c6.5,0,11.8,5.3,11.8,11.8
		c0,2.9-1,5.5-2.7,7.5c-2.3-2.5-5.6-4-9.1-4c-3.4,0-6.7,1.5-9.1,4c-1.7-2-2.7-4.7-2.7-7.5C4.2,9.4,9.5,4.1,16,4.1z M24.4,24.2
		c-2.2,2.3-5.3,3.5-8.4,3.5c-3.3,0-6.3-1.4-8.4-3.5c2.2-2.4,5.2-3.7,8.4-3.7S22.3,21.8,24.4,24.2z M16,18.9c2.9,0,5.3-2.4,5.3-5.3
		S18.9,8.3,16,8.3s-5.3,2.4-5.3,5.3S13.1,18.9,16,18.9z M16,9.3c2.4,0,4.3,1.9,4.3,4.3s-1.9,4.3-4.3,4.3s-4.3-1.9-4.3-4.3
		S13.6,9.3,16,9.3z"/>
</g>
</svg>
