<svg xmlns="http://www.w3.org/2000/svg" width="32" height="32" viewBox="0 0 32 32"><g fill="#fff"><path d="M28.8 16c0-7.1-5.7-12.8-12.8-12.8-7.1-.1-12.8 5.7-12.8 12.8 0 3.2 1.2 6.1 3.1 8.3l.3.3c2.4 2.7 5.8 4.2 9.5 4.2 2.3 0 4.5-.6 6.3-1.7 0 0 .1 0 .1-.1l1-.6.2-.2.8-.6.3-.3.6-.6.2-.2.3-.3c1.8-2.2 2.9-5.1 2.9-8.2zm-12.8-11.9c6.5 0 11.8 5.3 11.8 11.8 0 2.9-1 5.5-2.7 7.5-2.3-2.5-5.6-4-9.1-4-3.4 0-6.7 1.5-9.1 4-1.7-2-2.7-4.7-2.7-7.5 0-6.5 5.3-11.8 11.8-11.8zm8.4 20.1c-2.2 2.3-5.3 3.5-8.4 3.5-3.3 0-6.3-1.4-8.4-3.5 2.2-2.4 5.2-3.7 8.4-3.7s6.3 1.3 8.4 3.7zM16 18.9c2.9 0 5.3-2.4 5.3-5.3s-2.4-5.3-5.3-5.3-5.3 2.4-5.3 5.3 2.4 5.3 5.3 5.3zm0-9.6c2.4 0 4.3 1.9 4.3 4.3s-1.9 4.3-4.3 4.3-4.3-1.9-4.3-4.3 1.9-4.3 4.3-4.3z"/></g></svg>