<?xml version="1.0" encoding="utf-8"?>
<!-- Generator: Adobe Illustrator 18.0.0, SVG Export Plug-In . SVG Version: 6.00 Build 0)  -->
<!DOCTYPE svg PUBLIC "-//W3C//DTD SVG 1.1//EN" "http://www.w3.org/Graphics/SVG/1.1/DTD/svg11.dtd">
<svg version="1.1" xmlns="http://www.w3.org/2000/svg" xmlns:xlink="http://www.w3.org/1999/xlink" x="0px" y="0px"
	 viewBox="0 0 612 612" enable-background="new 0 0 612 612" xml:space="preserve">
<g id="Layer_7">
	
		<ellipse fill="none" stroke="#FFFFFF" stroke-width="17" stroke-linejoin="round" stroke-miterlimit="10" cx="306" cy="273.6" rx="115.5" ry="83.3"/>
	
		<ellipse fill="none" stroke="#FFFFFF" stroke-width="17" stroke-linejoin="round" stroke-miterlimit="10" cx="306" cy="273.6" rx="28.2" ry="20.4"/>
</g>
<g id="Layer_2">
	<path fill="none" stroke="#FFFFFF" stroke-width="17" stroke-linejoin="round" stroke-miterlimit="10" d="M130.4,434.7h351.2
		c10.5,0,19.1,8.5,19.1,19.1v47.8c0,10.5-8.5,19.1-19.1,19.1H130.4c-10.5,0-19.1-8.5-19.1-19.1v-47.8
		C111.3,443.2,119.8,434.7,130.4,434.7z"/>
	<circle fill="#FFFFFF" cx="156" cy="477.7" r="13.5"/>
</g>
<g id="Layer_4">
	<path fill="none" stroke="#FFFFFF" stroke-width="17" stroke-linejoin="round" stroke-miterlimit="10" d="M111.3,453.8L146,121.4
		c1.8-17.3,16.4-30.4,33.8-30.4h252.4c17.4,0,32,13.1,33.8,30.4l34.7,332.4"/>
</g>
<g id="Layer_5">
	<g>
		<g>
			<path fill="#5D9BEB" d="M587.8,158.3h-252c-12,0-21.8-9.7-21.8-21.8V37c0-12,9.7-21.8,21.8-21.8h252c12,0,21.8,9.7,21.8,21.8
				v99.5C609.5,148.5,599.8,158.3,587.8,158.3z"/>
		</g>
		<g>
			<path fill="#FFFFFF" d="M383.1,126.5h-22.6V47.9h22.9c17.7,0,26.1,8,26.1,20.4c0,8.2-4.6,13.6-11.4,16.4
				c8.8,2.7,14.6,8.4,14.6,18.9C412.8,119.1,401.6,126.5,383.1,126.5z M382.7,59.4H375v20.9h7c8.9,0,13.6-4,13.6-10.7
				C395.6,63.3,391.8,59.4,382.7,59.4z M382.9,91H375v24h8.1c9.6,0,15.2-4,15.2-11.9C398.3,95.2,392.9,91,382.9,91z"/>
			<path fill="#FFFFFF" d="M470.9,101.7h-35.3c0.7,10.7,6.4,15.4,14.8,15.4c7.1,0,12.9-2.6,18.9-6.8l1.6,10.7
				c-5.9,4.1-13.1,6.7-22,6.7c-15.4,0-26.9-8.8-26.9-28.6c0-17.9,10.7-28.7,25.1-28.7c16.5,0,23.9,12.4,23.9,28
				C471,99.5,470.9,100.9,470.9,101.7z M446.7,79.8c-5.5,0-9.9,4.3-10.9,13.3h21.9C456.8,84.6,453.4,79.8,446.7,79.8z"/>
			<path fill="#FFFFFF" d="M504.2,127.4c-10.8,0-18.1-4-18.1-16.5V82.6h-7.8V71.5h7.8V54l13.5-2.1v19.5h11.3l1.7,11.2h-13v26
				c0,4.4,2.1,6.8,7.3,6.8c1.6,0,3.1-0.1,4.3-0.5l1.7,11.5C510.7,127,508.2,127.4,504.2,127.4z"/>
			<path fill="#FFFFFF" d="M556.3,126.5l-1.1-7.2c-4.4,4.7-10.1,8.3-18.4,8.3c-9.3,0-15.6-5.7-15.6-15.3c0-13.3,10.9-19.2,33.2-21.3
				v-1.6c0-5.9-3.4-8.2-9.5-8.2c-6.4,0-12.4,1.8-18.4,4.4l-1.7-10.9c6.4-2.5,13.1-4.4,21.9-4.4c14.2,0,21.3,5.2,21.3,18.5v37.7
				H556.3z M554.4,99c-15.8,1.9-19.6,6.6-19.6,11.9c0,4,2.5,6.4,6.7,6.4c4.7,0,9.1-2.2,12.9-5.9L554.4,99L554.4,99z"/>
		</g>
	</g>
</g>
</svg>
